<svg xmlns="http://www.w3.org/2000/svg" viewBox="0 0 512 512">
  <defs>
    <linearGradient id="g"
                    x1="0" y1="0" x2="512" y2="512"
                    gradientUnits="userSpaceOnUse">
      <stop offset="0%"   stop-color="#FFFFFF"/>
      <stop offset="55%"  stop-color="#D8DDE4"/>
      <stop offset="100%" stop-color="#B0B8C2"/>
    </linearGradient>
  </defs>

  <g transform="rotate(20,256,256)">
    <path fill="url(#g)" fill-rule="evenodd" d="
      M 56,56  L 456,56  L 456,456 L 56,456  Z

      M 146,146 L 198,146 L 198,366 L 146,366 Z
      M 198,146 L 250,146 L 366,366 L 314,366 Z
      M 314,146 L 366,146 L 366,366 L 314,366 Z

      M 216,216 L 296,216 L 296,296 L 216,296 Z

      M 236,56  L 276,56  L 276,216 L 236,216 Z
      M 236,296 L 276,296 L 276,456 L 236,456 Z
      M 56,236  L 216,236 L 216,276 L 56,276  Z
      M 296,236 L 456,236 L 456,276 L 296,276  Z
    "/>
  </g>
</svg>
